<?xml version="1.0" standalone="no"?><!DOCTYPE svg PUBLIC "-//W3C//DTD SVG 1.1//EN" "http://www.w3.org/Graphics/SVG/1.1/DTD/svg11.dtd"><svg t="1515605818237" class="icon" style="" viewBox="0 0 1024 1024" version="1.1" xmlns="http://www.w3.org/2000/svg" p-id="1831" xmlns:xlink="http://www.w3.org/1999/xlink" width="200" height="200"><defs><style type="text/css"></style></defs><path d="M656.252 656.084c-46.8 99.616-267.804 359.912-367.4 313.084-99.596-46.812-40.024-383.052 6.816-482.656 46.784-99.572 165.484-142.344 265.08-95.492 99.584 46.812 142.356 165.492 95.504 265.064z" fill="#F15C27" p-id="1832"></path><path d="M715.66 344.768l16.276 51.36 102.312-114.216-90.764-81.384-9.48 10.572-159.924 178.452 0.108 0.1z" fill="#3DB54A" p-id="1833"></path><path d="M649.256 216.136l18.828-48.872 50.808-127.316-163.344 10.412 21.696 340.02 0.176-0.04z" fill="#3DB54A" p-id="1834"></path><path d="M492.04 459.364c-4.656 10.56-27.084 10.956-50.008 0.8-22.944-10.176-37.74-26.888-33.044-37.5 4.648-10.596 27.036-10.968 49.992-0.852 22.932 10.144 37.756 26.94 33.06 37.552z" fill="#E6E6E5" p-id="1835"></path><path d="M568.216 63.072l16.212 275.18 10.78-278.604-20.436-0.6" fill="#1B6935" p-id="1836"></path><path d="M750.916 220.948l-12.424 153.468 83.16-88.204z" fill="#079247" p-id="1837"></path></svg>